<?xml version="1.0" encoding="UTF-8"?>
<!DOCTYPE svg PUBLIC "-//W3C//DTD SVG 1.1//EN" "http://www.w3.org/Graphics/SVG/1.1/DTD/svg11.dtd">
<!-- Creator: CorelDRAW 2020 (64 Bit) -->
<svg xmlns="http://www.w3.org/2000/svg" xml:space="preserve" width="1000px" height="1000px" version="1.1" style="shape-rendering:geometricPrecision; text-rendering:geometricPrecision; image-rendering:optimizeQuality; fill-rule:evenodd; clip-rule:evenodd"
viewBox="0 0 1000 1000"
 xmlns:xlink="http://www.w3.org/1999/xlink"
 xmlns:xodm="http://www.corel.com/coreldraw/odm/2003">
 <defs>
  <style type="text/css">
   <![CDATA[
    .fil0 {fill:#FAFAFA}
   ]]>
  </style>
 </defs>
 <g id="Camada_x0020_1">
  <metadata id="CorelCorpID_0Corel-Layer"/>
  <path class="fil0" d="M783.56 518.78l-14.18 -13.62 -1.09 -105.68 3.83 -1.1 -2.74 -30.66 3.84 -12.6 16.97 -6.57c12.55,0.85 19.85,0.48 21.91,-1.1 4.31,-2.97 8.69,-10.82 13.14,-23.54 2.86,1.69 9.06,1.5 18.62,-0.55 1.27,-0.18 1.46,-0.73 0.54,-1.64l1.65 0c1.5,-0.51 2.05,-1.24 1.64,-2.19 0.74,-0.79 0.74,-1.34 0,-1.65 0.22,-0.82 0.03,-1.36 -0.55,-1.64l-7.66 -0.55c0.72,-0.73 0.72,-1.46 0,-2.19l-9.31 0 -6.57 2.74c-13.97,0.04 -25.83,-1.24 -35.6,-3.83 -4.85,-0.3 -9.96,-1.58 -15.33,-3.83 -5.22,0.24 -10.88,-0.86 -16.97,-3.29 0.23,-4.8 -1.41,-8.64 -4.93,-11.5 0.6,-7.55 -0.31,-12.66 -2.74,-15.33 -4.54,-3.36 -8.93,-4.27 -13.14,-2.74 -7.24,2.96 -9.43,7.88 -6.57,14.79 2.63,6.09 3.55,11.74 2.74,16.97 -1.56,2.03 -4.11,3.13 -7.67,3.29 -6.91,0.58 -12.75,2.77 -17.52,6.57l-9.31 3.83c-14.23,1.27 -28.28,2.18 -42.17,2.74 -3.15,-1.89 -8.45,-2.44 -15.88,-1.64 -1.82,0 -2.19,0.73 -1.09,2.19l-5.48 0.54c-2.08,-0.12 -2.81,0.61 -2.19,2.19 -1.88,-0.06 -2.24,0.85 -1.09,2.74 4.58,2.41 10.97,4.05 19.16,4.93 3.5,0.9 7.33,-0.2 11.5,-3.29l13.14 22.46 29.03 0c2.4,1.64 6.6,2.55 12.59,2.73l0.55 84.33 2.19 2.74 1.09 18.62c0.19,3.29 -0.35,18.44 -1.64,45.44l-15.12 14.59 82.39 -3.48 0.02 -0.22z"/>
  <path class="fil0" d="M-448 544.94c361.82,87.47 744,37.49 1078,-19.74 197.42,-33.82 365.32,19.74 567,19.74l0 199.01 -1645 0 0 -199.01z"/>
 </g>
</svg>
