<?xml version="1.0" encoding="UTF-8"?>
<!DOCTYPE svg PUBLIC "-//W3C//DTD SVG 1.1//EN" "http://www.w3.org/Graphics/SVG/1.1/DTD/svg11.dtd">
<!-- Creator: CorelDRAW 2020 (64 Bit) -->
<svg xmlns="http://www.w3.org/2000/svg" xml:space="preserve" width="1000px" height="1000px" version="1.1" style="shape-rendering:geometricPrecision; text-rendering:geometricPrecision; image-rendering:optimizeQuality; fill-rule:evenodd; clip-rule:evenodd"
viewBox="0 0 1000 1000"
 xmlns:xlink="http://www.w3.org/1999/xlink"
 xmlns:xodm="http://www.corel.com/coreldraw/odm/2003">
 <defs>
  <style type="text/css">
   <![CDATA[
    .fil0 {fill:#FAFAFA}
   ]]>
  </style>
 </defs>
 <g id="Camada_x0020_1">
  <metadata id="CorelCorpID_0Corel-Layer"/>
  <path class="fil0" d="M830.81 550.37l-18.3 -24.22 -1.37 -132.31 4.8 -1.37 -3.43 -38.39 4.8 -15.77 21.25 -8.23c15.71,1.06 24.85,0.61 27.42,-1.37 5.41,-3.73 10.89,-13.55 16.46,-29.48 3.58,2.12 11.35,1.89 23.31,-0.68 1.6,-0.23 1.83,-0.92 0.68,-2.06l2.06 0c1.88,-0.64 2.57,-1.55 2.06,-2.74 0.92,-0.99 0.92,-1.68 0,-2.06 0.27,-1.03 0.04,-1.71 -0.69,-2.06l-9.6 -0.68c0.92,-0.92 0.92,-1.83 0,-2.74l-11.65 0 -8.23 3.42c-17.48,0.05 -32.33,-1.55 -44.56,-4.79 -6.07,-0.38 -12.47,-1.98 -19.19,-4.8 -6.54,0.3 -13.62,-1.07 -21.26,-4.12 0.3,-6.01 -1.76,-10.81 -6.17,-14.39 0.76,-9.46 -0.38,-15.86 -3.43,-19.2 -5.68,-4.21 -11.17,-5.35 -16.45,-3.43 -9.06,3.7 -11.8,9.87 -8.23,18.51 3.3,7.63 4.45,14.71 3.43,21.26 -1.94,2.54 -5.14,3.91 -9.6,4.11 -8.65,0.73 -15.96,3.47 -21.93,8.23l-11.66 4.79c-17.81,1.59 -35.41,2.73 -52.79,3.43 -3.95,-2.36 -10.57,-3.05 -19.88,-2.05 -2.28,0 -2.74,0.91 -1.37,2.74l-6.85 0.68c-2.61,-0.15 -3.53,0.77 -2.75,2.75 -2.35,-0.09 -2.81,1.06 -1.37,3.42 5.74,3.02 13.74,5.07 24,6.17 4.38,1.13 9.17,-0.24 14.39,-4.11l16.46 28.11 36.33 0c3.02,2.05 8.27,3.2 15.77,3.43l0.69 105.57 2.74 3.43 1.37 23.31c0.24,4.12 -0.45,23.09 -2.06,56.9l-19.11 23.92 103.91 -3.13z"/>
  <path class="fil0" d="M-448 591.59c361.82,123.25 744,52.83 1078,-27.8 197.42,-47.67 365.32,27.8 567,27.8l0 280.41 -1645 0 0 -280.41z"/>
 </g>
</svg>
